<svg id="Layer_1" data-name="Layer 1" xmlns="http://www.w3.org/2000/svg" xmlns:xlink="http://www.w3.org/1999/xlink" width="275.41mm" height="275.19mm" viewBox="0 0 780.68 780.06"><defs><style>.cls-1{fill:none;}.cls-2{clip-path:url(#clip-path);}.cls-3{fill:#fff;}</style><clipPath id="clip-path" transform="translate(-79.46 -3.1)"><rect class="cls-1" x="79.46" y="2.8" width="780.68" height="780.68"/></clipPath></defs><g class="cls-2"><path class="cls-3" d="M663.89,3.1H275.09C167.37,3.1,79.46,91,79.46,198.74V588.15c0,107.11,87.91,195,195.63,195H664.51c107.72,0,195.63-87.91,195.63-195.64V198.74C859.52,91,771.61,3.1,663.89,3.1ZM339.48,634.58H228V312.65H339.48ZM283.14,263.13a57,57,0,1,1,57-57C339.48,237.74,314.1,263.13,283.14,263.13Zm427.8,371.45H618.07v-156c0-37.76-5-86.05-56.34-86.05-52.62,0-61.28,40.86-61.28,83.57V634.58H407.58V312.65h86.68V356h2.47c13.62-24.77,45.2-44,94.72-44,102.15,0,120.11,58.82,120.11,146.11V634.58Z" transform="translate(-79.46 -3.1)"/></g></svg>